<svg xmlns="http://www.w3.org/2000/svg" width="32.093" height="20.06" viewBox="0 0 32.093 20.06">
  <g id="behance" transform="translate(0 -95.979)">
    <g id="Group_12" data-name="Group 12" transform="translate(0 95.979)">
      <g id="Group_11" data-name="Group 11" transform="translate(0 0)">
        <path id="Path_4" data-name="Path 4" d="M13.2,105.046a4.814,4.814,0,0,0,1.515-1.111,4.317,4.317,0,0,0,.917-2.883,4.933,4.933,0,0,0-.909-2.987q-1.517-2.034-5.141-2.086H0v19.564H8.937a13.974,13.974,0,0,0,2.8-.263,5.511,5.511,0,0,0,2.241-.983,5.425,5.425,0,0,0,1.4-1.539,5.653,5.653,0,0,0,.885-3.119,5.133,5.133,0,0,0-.772-2.867A4.458,4.458,0,0,0,13.2,105.046Zm-9.25-5.669H8.271a7.61,7.61,0,0,1,2.345.3,1.755,1.755,0,0,1,1.065,1.809,1.842,1.842,0,0,1-.806,1.717,4.046,4.046,0,0,1-2.1.485H3.954ZM10.78,111.8a4.728,4.728,0,0,1-2.01.345H3.954v-5.218H8.836a5.1,5.1,0,0,1,1.986.329,2.1,2.1,0,0,1,1.262,2.1A2.459,2.459,0,0,1,10.78,111.8Z" transform="translate(0 -95.979)" fill="#fff"/>
        <rect id="Rectangle_4" data-name="Rectangle 4" width="8.499" height="2.435" transform="translate(20.509 0.913)" fill="#fff"/>
        <path id="Path_5" data-name="Path 5" d="M294.289,176.988A6.979,6.979,0,0,0,293.117,174a5.905,5.905,0,0,0-2.532-2.14,8.38,8.38,0,0,0-3.45-.678,7.141,7.141,0,0,0-5.244,2.006,7.782,7.782,0,0,0-2.02,5.769q0,4.011,2.241,5.791a8.05,8.05,0,0,0,5.165,1.779,7.189,7.189,0,0,0,5.518-2.108,4.747,4.747,0,0,0,1.42-2.616H290.3a3.158,3.158,0,0,1-.79.995,3.278,3.278,0,0,1-2.126.662,3.931,3.931,0,0,1-2.116-.546,3.456,3.456,0,0,1-1.537-3.051h10.686A18.41,18.41,0,0,0,294.289,176.988Zm-10.461.375a3.921,3.921,0,0,1,1.023-2.239,3.084,3.084,0,0,1,2.289-.828,3.405,3.405,0,0,1,2.277.778,3.164,3.164,0,0,1,1.021,2.289Z" transform="translate(-262.328 -166.465)" fill="#fff"/>
      </g>
    </g>
  </g>
</svg>
