<svg id="email" xmlns="http://www.w3.org/2000/svg" width="58.341" height="45.839" viewBox="0 0 58.341 45.839">
  <g id="Group_15" data-name="Group 15">
    <path id="Path_17" data-name="Path 17" d="M5.6,68.949q1.107.781,6.674,4.639T20.8,79.53q.325.228,1.383.993t1.758,1.237q.7.472,1.693,1.058a9.823,9.823,0,0,0,1.872.878,5.158,5.158,0,0,0,1.628.293H29.2a5.163,5.163,0,0,0,1.628-.293,9.832,9.832,0,0,0,1.872-.878q.993-.587,1.693-1.058t1.758-1.237q1.058-.766,1.384-.993,2.995-2.083,15.236-10.581a15.466,15.466,0,0,0,3.971-4,8.6,8.6,0,0,0,1.6-4.915,5.253,5.253,0,0,0-5.209-5.209H5.209a4.649,4.649,0,0,0-3.858,1.693A6.572,6.572,0,0,0,0,60.745a7.6,7.6,0,0,0,1.791,4.444A16.16,16.16,0,0,0,5.6,68.949Z" transform="translate(0 -54.82)" fill="#fff"/>
    <path id="Path_18" data-name="Path 18" d="M55.085,187.269Q44.407,194.5,38.872,198.5q-1.856,1.367-3.011,2.132a18.584,18.584,0,0,1-3.077,1.562,9.368,9.368,0,0,1-3.581.8h-.066a9.371,9.371,0,0,1-3.581-.8,18.593,18.593,0,0,1-3.077-1.562q-1.155-.765-3.011-2.132-4.4-3.223-16.18-11.232A17.245,17.245,0,0,1,0,184.437v25.849a5.015,5.015,0,0,0,1.53,3.679A5.015,5.015,0,0,0,5.209,215.5H53.132a5.225,5.225,0,0,0,5.209-5.21V184.437A17.953,17.953,0,0,1,55.085,187.269Z" transform="translate(0 -169.657)" fill="#fff"/>
  </g>
</svg>
