<svg xmlns="http://www.w3.org/2000/svg" width="18.992" height="35.127" viewBox="0 0 18.992 35.127">
  <g id="facebook-logo" transform="translate(-22.077)">
    <path id="Path_1" data-name="Path 1" d="M40.353.007,35.8,0c-5.118,0-8.425,3.393-8.425,8.645v3.986h-4.58a.716.716,0,0,0-.716.717v5.775a.716.716,0,0,0,.716.716h4.58V34.411a.716.716,0,0,0,.716.716h5.976a.716.716,0,0,0,.716-.716V19.839h5.355a.716.716,0,0,0,.716-.716l0-5.775a.717.717,0,0,0-.717-.717H34.782V9.252c0-1.624.387-2.448,2.5-2.448h3.069a.716.716,0,0,0,.716-.716V.724A.716.716,0,0,0,40.353.007Z" fill="#fff"/>
  </g>
</svg>
