<svg id="instagram" xmlns="http://www.w3.org/2000/svg" width="23.5" height="23.5" viewBox="0 0 23.5 23.5">
  <g id="Group_6" data-name="Group 6">
    <g id="Group_5" data-name="Group 5">
      <path id="Path_2" data-name="Path 2" d="M16.156,0H7.344A7.345,7.345,0,0,0,0,7.344v8.813A7.345,7.345,0,0,0,7.344,23.5h8.813A7.345,7.345,0,0,0,23.5,16.156V7.344A7.345,7.345,0,0,0,16.156,0ZM21.3,16.156A5.146,5.146,0,0,1,16.156,21.3H7.344A5.146,5.146,0,0,1,2.2,16.156V7.344A5.146,5.146,0,0,1,7.344,2.2h8.813A5.146,5.146,0,0,1,21.3,7.344Z" fill="#fff"/>
    </g>
  </g>
  <g id="Group_8" data-name="Group 8" transform="translate(5.875 5.875)">
    <g id="Group_7" data-name="Group 7">
      <path id="Path_3" data-name="Path 3" d="M133.875,128a5.875,5.875,0,1,0,5.875,5.875A5.875,5.875,0,0,0,133.875,128Zm0,9.547a3.672,3.672,0,1,1,3.672-3.672A3.677,3.677,0,0,1,133.875,137.547Z" transform="translate(-128 -128)" fill="#fff"/>
    </g>
  </g>
  <g id="Group_10" data-name="Group 10" transform="translate(17.283 4.652)">
    <g id="Group_9" data-name="Group 9">
      <circle id="Ellipse_1" data-name="Ellipse 1" cx="0.783" cy="0.783" r="0.783" fill="#fff"/>
    </g>
  </g>
</svg>
