<svg xmlns="http://www.w3.org/2000/svg" width="23.5" height="23.448" viewBox="0 0 23.5 23.448">
  <g id="linkedin" transform="translate(0 -0.341)">
    <path id="XMLID_802_" d="M10.024,99.73H5.306a.379.379,0,0,0-.379.379v15.156a.379.379,0,0,0,.379.379h4.718a.379.379,0,0,0,.379-.379V100.109A.379.379,0,0,0,10.024,99.73Z" transform="translate(-4.554 -91.855)" fill="#fff"/>
    <path id="XMLID_803_" d="M3.113.341a3.11,3.11,0,1,0,3.111,3.11A3.115,3.115,0,0,0,3.113.341Z" fill="#fff"/>
    <path id="XMLID_804_" d="M115.6,94.761a5.541,5.541,0,0,0-4.145,1.74v-.984a.379.379,0,0,0-.379-.379h-4.518a.379.379,0,0,0-.379.379v15.156a.379.379,0,0,0,.379.379h4.707a.379.379,0,0,0,.379-.379v-7.5c0-2.527.686-3.511,2.448-3.511,1.918,0,2.071,1.578,2.071,3.641v7.369a.379.379,0,0,0,.379.379h4.709a.379.379,0,0,0,.379-.379v-8.313C121.627,98.6,120.911,94.761,115.6,94.761Z" transform="translate(-98.127 -87.262)" fill="#fff"/>
  </g>
</svg>
